<svg version="1.1" xmlns="http://www.w3.org/2000/svg" style="display: block;" viewBox="0 0 2048 1638" width="1000" height="800" preserveAspectRatio="none">
    <defs>
        <!-- 三色渐变：Primary到Accent -->
        <linearGradient id="Gradient1" gradientUnits="userSpaceOnUse" x1="1198.19" y1="1603.43" x2="631.302" y2="176.009">
            <stop offset="0" stop-opacity="1" stop-color="#00C9FF"/>
            <stop offset="0.5" stop-opacity="1" stop-color="#6C63FF"/>
            <stop offset="1" stop-opacity="1" stop-color="#00FFAA"/>
        </linearGradient>
    </defs>
    <path transform="translate(0,0)" fill="rgb(255,255,255)" d="M 0 0 L 2048 0 L 2048 1638 L 0 1638 L 0 0 z"/>
    <path transform="translate(0,0)" fill="url(#Gradient1)" d="M 172.709 518.328 C 184.027 503.005 195.19 483.813 205.966 470.066 C 271.532 386.428 356.599 307.583 449.87 256.064 C 511.98 221.539 577.522 193.585 645.432 172.657 C 792.461 127.771 975.553 113.174 1126.15 141.715 C 1256.62 166.442 1407.03 229.415 1474.24 351.129 C 1464.79 344.332 1454.45 332.364 1445.08 325.505 C 1419.45 306.737 1389.1 285.332 1360.4 271.01 C 1281.64 232.559 1186.93 207.312 1099.79 228.452 C 1089.33 230.99 1066.49 243.933 1074.05 257.157 C 1085.28 275.092 1113.98 284.937 1132.78 293.751 C 1187.5 319.414 1235.72 353.279 1273.08 401.306 C 1291.18 424.57 1302.23 450.575 1312.65 478.112 C 1275.48 441.605 1229.81 414.926 1179.75 400.485 C 1065.41 366.408 939.277 385.434 834.64 440.816 C 614.712 557.219 527.085 802.878 608.357 1035.62 C 618.058 1064.23 630.124 1091.99 644.429 1118.59 C 731.341 1277.82 894.764 1387.63 1069.07 1429.32 C 1087.18 1433.65 1105.71 1438.21 1123.99 1441.54 C 1287.43 1471.68 1456.2 1450.44 1607.09 1380.75 C 1640.71 1365.51 1662.71 1351.68 1694.08 1334.56 C 1706.08 1325.84 1730.45 1308.6 1743.16 1302.27 C 1736.42 1309.59 1705.27 1341.64 1697.16 1347.91 C 1685.25 1361.74 1651.39 1388.74 1636.55 1400.34 C 1594.79 1432.41 1549.77 1459.97 1502.22 1482.58 C 1402.32 1530.26 1313.8 1551.72 1202.91 1559.85 C 1003.02 1574.98 805.286 1510.31 652.97 1379.99 C 642.229 1370.68 630.289 1360.44 619.929 1350.79 C 669.418 1441.2 739.262 1505.05 827.713 1557 C 849.413 1569.75 872.748 1578.95 894.814 1590.45 C 907.934 1595.55 937.814 1606.1 948.409 1612.65 C 937.901 1611.51 900.443 1605.72 890.908 1602.83 C 886.97 1602.71 867.865 1598.36 863.5 1597.31 C 818.502 1586.6 774.651 1571.54 732.566 1552.34 C 561.829 1475.15 429.417 1350.23 366.145 1172.1 C 331.157 1073.6 317.738 972.16 336.181 868.345 C 340.788 842.412 349.001 817.593 357.546 792.787 C 365.411 769.154 376.327 752.209 386.38 729.937 C 356.155 748.573 323.108 803.324 306.144 834.796 C 256.01 927.803 247.651 1029.25 266.639 1132.12 C 274.776 1176.21 288.056 1209.56 300.52 1250.86 C 235.888 1159.19 203.263 1051.26 201.159 939.657 C 199.726 869.059 210.982 798.777 234.392 732.158 C 285.102 588.65 396.522 461.245 526.575 383.504 C 572.087 356.284 620.53 334.296 670.983 317.961 C 677.485 315.924 703.693 309.312 706.491 304.14 C 705.592 303.246 704.263 302.65 702.984 302.6 C 550.581 296.666 401.714 347.496 277.111 433.783 C 247.647 454.187 218.2 476.615 192.197 501.222 C 186.742 506.385 178.849 514.553 172.709 518.328 z"/>
    <path transform="translate(0,0)" fill="#00C9FF" d="M 894.814 1590.45 C 907.934 1595.55 937.814 1606.1 948.409 1612.65 C 937.901 1611.51 900.443 1605.72 890.908 1602.83 C 898.166 1600.38 912.114 1607.17 920.047 1605.02 C 916.944 1598.55 900.002 1597.28 894.814 1590.45 z"/>
    <path transform="translate(0,0)" fill="#00C9FF" d="M 1796.89 1187.63 C 1734.47 1260.96 1638.68 1310.97 1547.49 1343.19 C 1332.21 1419.27 1073.3 1402.64 880.672 1274.53 C 794.332 1217.1 724.797 1132.86 690.958 1035.8 C 656.156 938.04 662.056 830.399 707.334 737.026 C 715.296 720.628 725.68 705.311 736.306 690.542 C 782.016 625.651 846.858 576.661 921.769 550.417 C 999.006 523.576 1098.17 518.402 1173.05 554.582 C 1184.18 558.551 1203.17 569.23 1212.4 576.472 C 1207.38 574.872 1176.52 566.158 1173.36 564.319 C 1093.67 552.342 1020.09 563.866 950.934 607.339 C 857.05 666.61 793.448 778.066 800.259 890.38 C 813.948 1116.1 1013.99 1260.34 1218.05 1305.6 C 1386.5 1344.48 1563.35 1320.65 1715.5 1238.58 C 1745.68 1222.55 1768.8 1205.42 1796.89 1187.63 z"/>
    <path transform="translate(0,0)" fill="#6C63FF" d="M 1173.05 554.582 C 1184.18 558.551 1203.17 569.23 1212.4 576.472 C 1207.38 574.872 1176.52 566.158 1173.36 564.319 L 1174.56 563.311 C 1178.21 564.22 1184.36 565.986 1187.75 564.317 C 1185.94 562.343 1176.12 557.911 1173.05 556.403 L 1173.05 554.582 z"/>
    <path transform="translate(0,0)" fill="#00FFAA" d="M 1657.01 373.255 C 1666.82 372.683 1677.83 375.044 1685.16 381.538 C 1702.7 396.951 1715.73 419.648 1729.23 438.299 C 1872.67 636.569 1881.63 907.146 1749.63 1113.57 C 1742.49 1124.73 1732.95 1139.42 1724.59 1150.1 C 1705.99 1173.85 1697.09 1205.55 1663.52 1209.63 C 1639.6 1208.16 1615.36 1190.38 1624.84 1161.82 C 1628.4 1151.06 1645.57 1133.57 1653.41 1123.45 C 1661.65 1112.66 1669.58 1101.64 1677.21 1090.41 C 1694 1065.29 1708.45 1041.34 1721.19 1013.78 C 1781.2 882.876 1786.09 733.351 1734.78 598.798 C 1721.58 564.573 1704.94 534.853 1686.28 503.341 C 1680.3 493.079 1673.71 483.183 1666.55 473.705 C 1654.39 457.869 1639.64 442.629 1628.49 426.558 C 1611.85 402.566 1632.46 377.525 1657.01 373.255 z"/>
    <path transform="translate(0,0)" fill="#6C63FF" d="M 1179.48 666.616 C 1250.27 659.844 1313.19 711.65 1320.12 782.425 C 1327.06 853.2 1275.4 916.235 1204.64 923.335 C 1133.65 930.459 1070.36 878.592 1063.4 807.584 C 1056.44 736.576 1108.46 673.409 1179.48 666.616 z"/>
    <path transform="translate(0,0)" fill="#00FFAA" d="M 1544.72 477.217 C 1569.24 476.513 1584.66 500.734 1597.55 518.654 C 1638.97 576.16 1667.14 642.132 1680.01 711.824 C 1704.29 845.112 1666.8 966.959 1588.43 1074.63 C 1577.18 1090.08 1570.46 1102.32 1550.23 1105.99 C 1530.64 1106.15 1515.69 1098.1 1509.98 1078.14 C 1505.06 1060.07 1518.32 1044.39 1529.03 1031.44 C 1540.25 1017.05 1554.01 1000.71 1562.32 984.454 C 1575.21 959.229 1590.53 926.689 1598.5 899.652 C 1621.86 820.42 1617.53 731.568 1588.18 654.52 C 1581.63 637.336 1574.66 617.972 1565.64 602.063 C 1558.72 589.985 1551.17 578.285 1543.01 567.01 C 1536.09 557.435 1527.77 547.048 1520.13 537.945 C 1498.74 512.473 1514.1 483.277 1544.72 477.217 z"/>
    <path transform="translate(0,0)" fill="#00FFAA" d="M 1429.12 580.118 C 1456.99 577.378 1463.8 596.319 1476.65 615.846 C 1543.64 717.684 1548.06 848.695 1484.28 953.345 C 1470.57 975.853 1464.09 998.5 1434.66 1002.44 C 1416.5 1000.89 1400.55 992.601 1395.08 973.959 C 1389.18 953.86 1403.73 939.308 1414.75 924.658 C 1419.09 918.883 1423.04 912.321 1426.63 906.026 C 1458.91 848.98 1464.8 778.177 1444.13 716.16 C 1439.56 702.438 1435.74 689.827 1428.54 676.907 C 1424.64 669.886 1421.3 664.077 1416.69 657.352 C 1409.54 646.9 1398.3 636.196 1394.95 623.933 C 1392.92 616.496 1394.68 606.984 1398.83 600.568 C 1406.88 588.098 1415.44 583.562 1429.12 580.118 z"/>
    <path transform="translate(0,0)" fill="#6C63FF" d="M 1036.12 92.5584 C 1048.42 90.719 1063.07 91.9137 1075.72 92.4333 C 1129.29 94.6342 1186.79 103.408 1236.83 122.947 C 1256.41 130.592 1286.32 147.888 1294.6 167.911 C 1289.84 166.403 1282.6 161.978 1277.67 159.823 C 1212.89 131.512 1145.23 111.133 1075.44 99.6996 C 1066.06 98.1634 1044.09 95.4348 1036.12 92.5584 z"/>
</svg>

